<svg width="1280" height="720" viewBox="0 0 1280 720" fill="none" xmlns="http://www.w3.org/2000/svg" role="img" aria-labelledby="title desc">
<title id="title">Imbas OS roadmap</title><desc id="desc">Roadmap from HTML Artifact Vault alpha to Imbas OS 1.0.</desc>
<defs><linearGradient id="bg" x1="0" y1="0" x2="1280" y2="720"><stop stop-color="#070A16"/><stop offset="1" stop-color="#101827"/></linearGradient><linearGradient id="line" x1="110" y1="385" x2="1165" y2="385"><stop stop-color="#38BDF8"/><stop offset=".48" stop-color="#A78BFA"/><stop offset="1" stop-color="#F472B6"/></linearGradient></defs>
<rect width="1280" height="720" rx="36" fill="url(#bg)"/>
<circle cx="1018" cy="117" r="145" fill="#7C3AED" fill-opacity=".14"/><circle cx="160" cy="610" r="160" fill="#0EA5E9" fill-opacity=".11"/>
<text x="72" y="92" fill="#F8FAFC" font-family="Inter, ui-sans-serif, system-ui" font-size="54" font-weight="850" letter-spacing="-2">Imbas OS roadmap</text>
<text x="75" y="132" fill="#A5B4FC" font-family="Inter, ui-sans-serif, system-ui" font-size="24" font-weight="650">HTML Artifact Vault first, then the local-first AI operating layer.</text>
<path d="M110 386C250 310 356 457 495 379C626 305 728 462 861 382C987 306 1057 373 1165 326" stroke="url(#line)" stroke-width="8" stroke-linecap="round"/>
<g font-family="Inter, ui-sans-serif, system-ui">
<g transform="translate(70 270)"><rect width="178" height="162" rx="24" fill="#0F172A" stroke="#38BDF8"/><text x="22" y="42" fill="#7DD3FC" font-size="20" font-weight="800">M0</text><text x="22" y="75" fill="#F8FAFC" font-size="22" font-weight="800">Alpha readiness</text><text x="22" y="108" fill="#CBD5E1" font-size="15">license · security</text><text x="22" y="132" fill="#CBD5E1" font-size="15">screenshots · audit</text></g>
<g transform="translate(286 392)"><rect width="196" height="172" rx="24" fill="#0F172A" stroke="#22D3EE"/><text x="22" y="42" fill="#67E8F9" font-size="20" font-weight="800">M1</text><text x="22" y="75" fill="#F8FAFC" font-size="22" font-weight="800">HTML Vault alpha</text><text x="22" y="108" fill="#CBD5E1" font-size="15">import · sandbox</text><text x="22" y="132" fill="#CBD5E1" font-size="15">snapshots · search</text></g>
<g transform="translate(520 255)"><rect width="190" height="170" rx="24" fill="#0F172A" stroke="#A78BFA"/><text x="22" y="42" fill="#C4B5FD" font-size="20" font-weight="800">M2</text><text x="22" y="75" fill="#F8FAFC" font-size="22" font-weight="800">Artifact beta</text><text x="22" y="108" fill="#CBD5E1" font-size="15">drag/drop · zip</text><text x="22" y="132" fill="#CBD5E1" font-size="15">context export</text></g>
<g transform="translate(744 395)"><rect width="214" height="172" rx="24" fill="#0F172A" stroke="#C084FC"/><text x="22" y="42" fill="#D8B4FE" font-size="20" font-weight="800">M3–M5</text><text x="22" y="75" fill="#F8FAFC" font-size="22" font-weight="800">Agents + memory</text><text x="22" y="108" fill="#CBD5E1" font-size="15">Conduit · Runledger</text><text x="22" y="132" fill="#CBD5E1" font-size="15">Lorekeeper · Memsocket</text></g>
<g transform="translate(996 226)"><rect width="214" height="184" rx="24" fill="#0F172A" stroke="#F472B6"/><text x="22" y="42" fill="#F9A8D4" font-size="20" font-weight="800">M6–M9</text><text x="22" y="75" fill="#F8FAFC" font-size="22" font-weight="800">Imbas OS 1.0</text><text x="22" y="108" fill="#CBD5E1" font-size="15">Sanctum · Android</text><text x="22" y="132" fill="#CBD5E1" font-size="15">Atlas · CLI · Sync</text><text x="22" y="156" fill="#94A3B8" font-size="14">fresh gate · approval</text></g>
</g><text x="72" y="656" fill="#94A3B8" font-family="Inter, ui-sans-serif, system-ui" font-size="18">Free/open-source local core. Hosted/team/business features are a separate future product line.</text>
</svg>
