<svg xmlns="http://www.w3.org/2000/svg" viewBox="0 0 1024 1024" role="img" aria-labelledby="title desc">
<title id="title">ImbasOS hex crest icon</title><desc id="desc">A blue and gold hexagonal Celtic-inspired crest with a capital I monogram.</desc>
<defs><linearGradient id="blue" x1="0" y1="0" x2="1" y2="1"><stop offset="0" stop-color="#00A7FF"/><stop offset="0.55" stop-color="#0057D9"/><stop offset="1" stop-color="#002C7A"/></linearGradient><linearGradient id="gold" x1="0" y1="0" x2="1" y2="1"><stop offset="0" stop-color="#FFF1A8"/><stop offset="0.42" stop-color="#F2B835"/><stop offset="1" stop-color="#9B5D00"/></linearGradient><radialGradient id="navy" cx="50%" cy="45%" r="68%"><stop offset="0" stop-color="#071E3F"/><stop offset="1" stop-color="#020A18"/></radialGradient><filter id="shadow" x="-20%" y="-20%" width="140%" height="140%"><feDropShadow dx="0" dy="20" stdDeviation="24" flood-color="#000" flood-opacity=".45"/></filter></defs>
<g filter="url(#shadow)"><polygon points="512,64 899,288 899,736 512,960 125,736 125,288" fill="url(#navy)" stroke="url(#gold)" stroke-width="12"/><polygon points="512,88 878,300 878,724 512,936 146,724 146,300" fill="none" stroke="url(#blue)" stroke-width="34"/><polygon points="512,130 842,321 842,703 512,894 182,703 182,321" fill="none" stroke="#003C99" stroke-width="10" opacity=".8"/><g fill="none" stroke="url(#blue)" stroke-width="34" stroke-linecap="round" opacity=".92"><path d="M210 376 C330 220, 420 300, 302 455 C210 576, 330 662, 422 512"/><path d="M814 376 C694 220, 604 300, 722 455 C814 576, 694 662, 602 512"/><path d="M228 674 C342 834, 444 704, 332 578"/><path d="M796 674 C682 834, 580 704, 692 578"/></g><g fill="none" stroke="#031226" stroke-width="12" stroke-linecap="round" opacity=".7"><path d="M210 376 C330 220, 420 300, 302 455 C210 576, 330 662, 422 512"/><path d="M814 376 C694 220, 604 300, 722 455 C814 576, 694 662, 602 512"/></g><path d="M392 242 H632 L615 306 H557 V718 H615 L632 782 H392 L409 718 H467 V306 H409 Z" fill="url(#gold)" stroke="#FFF0A0" stroke-width="6"/><g fill="none" stroke="#5D3500" stroke-width="7" stroke-linecap="round"><path d="M512 326 C560 326 560 386 520 386 C486 386 492 340 526 352"/><path d="M506 400 C450 440 474 512 526 486 C568 466 548 418 512 436"/><path d="M514 506 C574 556 538 640 486 610 C444 586 468 536 512 558"/><path d="M504 636 C554 656 550 716 506 710 C472 704 480 660 514 674"/></g></g></svg>