<svg xmlns="http://www.w3.org/2000/svg" viewBox="0 0 1800 560" role="img" aria-labelledby="title desc"><title id="title">ImbasOS horizontal logo</title><desc id="desc">Horizontal ImbasOS logo with hex Celtic I crest and tagline.</desc><defs><linearGradient id="blue" x1="0" y1="0" x2="1" y2="1"><stop offset="0" stop-color="#00A7FF"/><stop offset="0.55" stop-color="#0057D9"/><stop offset="1" stop-color="#002C7A"/></linearGradient><linearGradient id="gold" x1="0" y1="0" x2="1" y2="1"><stop offset="0" stop-color="#FFF1A8"/><stop offset="0.42" stop-color="#F2B835"/><stop offset="1" stop-color="#9B5D00"/></linearGradient><linearGradient id="silver" x1="0" y1="0" x2="0" y2="1"><stop offset="0" stop-color="#FFFFFF"/><stop offset="0.45" stop-color="#D6DCE5"/><stop offset="1" stop-color="#8B95A4"/></linearGradient><radialGradient id="navy" cx="50%" cy="45%" r="70%"><stop offset="0" stop-color="#071E3F"/><stop offset="1" stop-color="#020A18"/></radialGradient></defs><rect width="1800" height="560" fill="none"/><g transform="translate(40 40) scale(.47)"><polygon points="512,64 899,288 899,736 512,960 125,736 125,288" fill="url(#navy)" stroke="url(#gold)" stroke-width="12"/><polygon points="512,88 878,300 878,724 512,936 146,724 146,300" fill="none" stroke="url(#blue)" stroke-width="34"/><g fill="none" stroke="url(#blue)" stroke-width="34" stroke-linecap="round"><path d="M210 376 C330 220, 420 300, 302 455 C210 576, 330 662, 422 512"/><path d="M814 376 C694 220, 604 300, 722 455 C814 576, 694 662, 602 512"/><path d="M228 674 C342 834, 444 704, 332 578"/><path d="M796 674 C682 834, 580 704, 692 578"/></g><path d="M392 242 H632 L615 306 H557 V718 H615 L632 782 H392 L409 718 H467 V306 H409 Z" fill="url(#gold)" stroke="#FFF0A0" stroke-width="6"/><g fill="none" stroke="#5D3500" stroke-width="7" stroke-linecap="round"><path d="M512 326 C560 326 560 386 520 386 C486 386 492 340 526 352"/><path d="M506 400 C450 440 474 512 526 486 C568 466 548 418 512 436"/><path d="M514 506 C574 556 538 640 486 610 C444 586 468 536 512 558"/><path d="M504 636 C554 656 550 716 506 710 C472 704 480 660 514 674"/></g></g><text x="560" y="250" font-family="Georgia, 'Times New Roman', serif" font-size="205" font-weight="700" letter-spacing="-8" fill="url(#silver)">Imbas</text><text x="1295" y="250" font-family="Georgia, 'Times New Roman', serif" font-size="205" font-weight="700" letter-spacing="-8" fill="url(#gold)">OS</text><text x="570" y="350" font-family="Inter, Arial, sans-serif" font-size="48" letter-spacing="14" fill="#D8DEE9">LOCAL-FIRST. AGENT-READY.</text></svg>