<svg xmlns="http://www.w3.org/2000/svg" viewBox="0 0 1024 1024" role="img" aria-labelledby="title desc"><title id="title">ImbasOS monochrome crest</title><desc id="desc">Black and white Celtic-inspired hex crest with capital I monogram.</desc><rect width="1024" height="1024" fill="#fff"/><polygon points="512,78 888,295 888,729 512,946 136,729 136,295" fill="none" stroke="#050505" stroke-width="34"/><g fill="none" stroke="#050505" stroke-width="30" stroke-linecap="round"><path d="M210 376 C330 220, 420 300, 302 455 C210 576, 330 662, 422 512"/><path d="M814 376 C694 220, 604 300, 722 455 C814 576, 694 662, 602 512"/><path d="M228 674 C342 834, 444 704, 332 578"/><path d="M796 674 C682 834, 580 704, 692 578"/></g><path d="M392 242 H632 L615 306 H557 V718 H615 L632 782 H392 L409 718 H467 V306 H409 Z" fill="none" stroke="#050505" stroke-width="26"/><g fill="none" stroke="#050505" stroke-width="10" stroke-linecap="round"><path d="M512 326 C560 326 560 386 520 386 C486 386 492 340 526 352"/><path d="M506 400 C450 440 474 512 526 486 C568 466 548 418 512 436"/><path d="M514 506 C574 556 538 640 486 610 C444 586 468 536 512 558"/><path d="M504 636 C554 656 550 716 506 710 C472 704 480 660 514 674"/></g></svg>