<svg xmlns="http://www.w3.org/2000/svg" viewBox="0 0 1024 1024" role="img" aria-labelledby="title desc"><title id="title">ImbasOS circular monogram</title><desc id="desc">Gold capital I monogram inside a gold circle on navy.</desc><defs><linearGradient id="gold" x1="0" y1="0" x2="1" y2="1"><stop offset="0" stop-color="#FFF1A8"/><stop offset=".5" stop-color="#F2B835"/><stop offset="1" stop-color="#9B5D00"/></linearGradient><radialGradient id="bg" cx="50%" cy="45%" r="70%"><stop offset="0" stop-color="#071E3F"/><stop offset="1" stop-color="#020A18"/></radialGradient></defs><rect width="1024" height="1024" fill="url(#bg)"/><circle cx="512" cy="512" r="390" fill="none" stroke="url(#gold)" stroke-width="34"/><path d="M350 245 H674 L650 330 H568 V694 H650 L674 779 H350 L374 694 H456 V330 H374 Z" fill="url(#gold)" stroke="#FFF0A0" stroke-width="8"/><g fill="none" stroke="#5D3500" stroke-width="11" stroke-linecap="round"><path d="M512 350 C584 350 584 432 524 432 C472 432 486 368 536 388"/><path d="M500 454 C426 512 468 600 536 562 C602 526 566 466 512 500"/><path d="M512 610 C592 660 548 744 482 704 C430 672 466 612 522 646"/></g></svg>