<svg width="256" height="256" viewBox="0 0 256 256" fill="none" xmlns="http://www.w3.org/2000/svg" role="img" aria-labelledby="title desc">
<title id="title">Imbas OS mark</title><desc id="desc">A luminous vault-window mark.</desc>
<defs><linearGradient id="g1" x1="58" y1="31" x2="198" y2="225"><stop stop-color="#7DD3FC"/><stop offset=".52" stop-color="#A78BFA"/><stop offset="1" stop-color="#F472B6"/></linearGradient><linearGradient id="g2" x1="88" y1="79" x2="172" y2="174"><stop stop-color="#ECFEFF"/><stop offset="1" stop-color="#67E8F9"/></linearGradient></defs>
<rect width="256" height="256" rx="56" fill="#080B18"/>
<path d="M128 36L205 80V176L128 220L51 176V80L128 36Z" stroke="url(#g1)" stroke-width="11" stroke-linejoin="round"/>
<path d="M83 90H173C181 90 188 97 188 105V178H68V105C68 97 75 90 83 90Z" fill="#0B1020" stroke="url(#g1)" stroke-width="7"/>
<path d="M96 107H160C167 107 172 112 172 119V160H84V119C84 112 89 107 96 107Z" fill="url(#g2)" fill-opacity=".17" stroke="#93C5FD" stroke-width="4"/>
<path d="M128 72V181M91 137H165" stroke="#E0F2FE" stroke-width="6" stroke-linecap="round"/>
<circle cx="128" cy="137" r="16" fill="#F8FAFC"/><circle cx="128" cy="137" r="6" fill="#7C3AED"/>
</svg>
